<?xml version="1.0" encoding="UTF-8"?><svg xmlns="http://www.w3.org/2000/svg" xmlns:xlink="http://www.w3.org/1999/xlink" fill-opacity="1" color-rendering="auto" color-interpolation="auto" text-rendering="auto" stroke="black" stroke-linecap="square" width="653" stroke-miterlimit="10" shape-rendering="auto" stroke-opacity="1" fill="black" stroke-dasharray="none" font-weight="normal" stroke-width="1" height="310" font-family="'Dialog'" font-style="normal" stroke-linejoin="miter" font-size="12px" stroke-dashoffset="0" image-rendering="auto">
  <!--Generated by ySVG 2.5-->
  <defs id="genericDefs"/>
  <g>
    <defs id="defs1">
      <clipPath clipPathUnits="userSpaceOnUse" id="clipPath1">
        <path d="M0 0 L653 0 L653 310 L0 310 L0 0 Z"/>
      </clipPath>
      <clipPath clipPathUnits="userSpaceOnUse" id="clipPath2">
        <path d="M220 871 L873 871 L873 1181 L220 1181 L220 871 Z"/>
      </clipPath>
    </defs>
    <g fill="white" text-rendering="geometricPrecision" shape-rendering="geometricPrecision" transform="translate(-220,-871)" stroke="white">
      <rect x="220" width="653" height="310" y="871" clip-path="url(#clipPath2)" stroke="none"/>
    </g>
    <g fill="rgb(153,204,255)" text-rendering="geometricPrecision" shape-rendering="geometricPrecision" transform="matrix(1,0,0,1,-220,-871)" stroke="rgb(153,204,255)">
      <rect x="235" width="389" height="54" y="1041" clip-path="url(#clipPath2)" stroke="none"/>
    </g>
    <g font-size="14px" stroke-linecap="butt" transform="matrix(1,0,0,1,-220,-871)" text-rendering="geometricPrecision" font-family="'Source Sans Pro'" shape-rendering="geometricPrecision" stroke-miterlimit="1.45">
      <text x="393.9945" xml:space="preserve" y="1071.8618" clip-path="url(#clipPath2)" stroke="none">secret-stack</text>
    </g>
    <g fill="rgb(153,204,255)" text-rendering="geometricPrecision" shape-rendering="geometricPrecision" transform="matrix(1,0,0,1,-220,-871)" stroke="rgb(153,204,255)">
      <rect x="235" width="225.2646" height="30" y="1100.5" clip-path="url(#clipPath2)" stroke="none"/>
    </g>
    <g font-size="14px" stroke-linecap="butt" transform="matrix(1,0,0,1,-220,-871)" text-rendering="geometricPrecision" font-family="'Source Sans Pro'" shape-rendering="geometricPrecision" stroke-miterlimit="1.45">
      <text x="314.1627" xml:space="preserve" y="1119.3618" clip-path="url(#clipPath2)" stroke="none">multiserver</text>
    </g>
    <g fill="rgb(153,204,255)" text-rendering="geometricPrecision" shape-rendering="geometricPrecision" transform="matrix(1,0,0,1,-220,-871)" stroke="rgb(153,204,255)">
      <rect x="466.0071" width="118.6713" height="30" y="1100.5" clip-path="url(#clipPath2)" stroke="none"/>
    </g>
    <g font-size="14px" stroke-linecap="butt" transform="matrix(1,0,0,1,-220,-871)" text-rendering="geometricPrecision" font-family="'Source Sans Pro'" shape-rendering="geometricPrecision" stroke-miterlimit="1.45">
      <text x="503.116" xml:space="preserve" y="1119.3618" clip-path="url(#clipPath2)" stroke="none">muxrpc</text>
    </g>
    <g fill="rgb(153,204,255)" text-rendering="geometricPrecision" shape-rendering="geometricPrecision" transform="matrix(1,0,0,1,-220,-871)" stroke="rgb(153,204,255)">
      <rect x="235" width="36" height="30" y="1136" clip-path="url(#clipPath2)" stroke="none"/>
    </g>
    <g font-size="14px" stroke-linecap="butt" transform="matrix(1,0,0,1,-220,-871)" text-rendering="geometricPrecision" font-family="'Source Sans Pro'" shape-rendering="geometricPrecision" stroke-miterlimit="1.45">
      <text x="243.3383" xml:space="preserve" y="1154.8618" clip-path="url(#clipPath2)" stroke="none">net</text>
    </g>
    <g fill="rgb(153,204,255)" text-rendering="geometricPrecision" shape-rendering="geometricPrecision" transform="matrix(1,0,0,1,-220,-871)" stroke="rgb(153,204,255)">
      <rect x="275.6893" width="141.9322" height="30" y="1136" clip-path="url(#clipPath2)" stroke="none"/>
    </g>
    <g font-size="14px" stroke-linecap="butt" transform="matrix(1,0,0,1,-220,-871)" text-rendering="geometricPrecision" font-family="'Source Sans Pro'" shape-rendering="geometricPrecision" stroke-miterlimit="1.45">
      <text x="294.3871" xml:space="preserve" y="1154.8618" clip-path="url(#clipPath2)" stroke="none">secret-handshake</text>
    </g>
    <g fill="rgb(153,204,255)" text-rendering="geometricPrecision" shape-rendering="geometricPrecision" transform="matrix(1,0,0,1,-220,-871)" stroke="rgb(153,204,255)">
      <rect x="424.2646" width="36" height="30" y="1136" clip-path="url(#clipPath2)" stroke="none"/>
    </g>
    <g font-size="14px" stroke-linecap="butt" transform="matrix(1,0,0,1,-220,-871)" text-rendering="geometricPrecision" font-family="'Source Sans Pro'" shape-rendering="geometricPrecision" stroke-miterlimit="1.45">
      <text x="434.3099" xml:space="preserve" y="1154.8618" clip-path="url(#clipPath2)" stroke="none">ws</text>
    </g>
    <g fill="rgb(153,204,255)" text-rendering="geometricPrecision" shape-rendering="geometricPrecision" transform="matrix(1,0,0,1,-220,-871)" stroke="rgb(153,204,255)">
      <rect x="466.0071" width="118.6713" height="30" y="1136" clip-path="url(#clipPath2)" stroke="none"/>
    </g>
    <g text-rendering="geometricPrecision" stroke-miterlimit="1.45" shape-rendering="geometricPrecision" font-family="'Source Sans Pro'" transform="matrix(1,0,0,1,-220,-871)" stroke-linecap="butt">
      <text x="471.9481" xml:space="preserve" y="1154.3102" clip-path="url(#clipPath2)" stroke="none">packet-stream-codec</text>
    </g>
    <g fill="rgb(126,224,126)" text-rendering="geometricPrecision" shape-rendering="geometricPrecision" transform="matrix(1,0,0,1,-220,-871)" stroke="rgb(126,224,126)">
      <rect x="629.88" width="227.12" height="54" y="1041" clip-path="url(#clipPath2)" stroke="none"/>
    </g>
    <g font-size="14px" stroke-linecap="butt" transform="matrix(1,0,0,1,-220,-871)" text-rendering="geometricPrecision" font-family="'Source Sans Pro'" shape-rendering="geometricPrecision" stroke-miterlimit="1.45">
      <text x="689.6536" xml:space="preserve" y="1071.8618" clip-path="url(#clipPath2)" stroke="none">secure-scuttlebutt</text>
    </g>
    <g fill="rgb(126,224,126)" text-rendering="geometricPrecision" shape-rendering="geometricPrecision" transform="matrix(1,0,0,1,-220,-871)" stroke="rgb(126,224,126)">
      <rect x="675.7552" width="181.2448" height="30" y="1100.5" clip-path="url(#clipPath2)" stroke="none"/>
    </g>
    <g font-size="14px" stroke-linecap="butt" transform="matrix(1,0,0,1,-220,-871)" text-rendering="geometricPrecision" font-family="'Source Sans Pro'" shape-rendering="geometricPrecision" stroke-miterlimit="1.45">
      <text x="741.7231" xml:space="preserve" y="1119.3618" clip-path="url(#clipPath2)" stroke="none">flumedb</text>
    </g>
    <g fill="rgb(126,224,126)" text-rendering="geometricPrecision" shape-rendering="geometricPrecision" transform="matrix(1,0,0,1,-220,-871)" stroke="rgb(126,224,126)">
      <rect x="675.7552" width="87.3392" height="30" y="1136" clip-path="url(#clipPath2)" stroke="none"/>
    </g>
    <g font-size="14px" stroke-linecap="butt" transform="matrix(1,0,0,1,-220,-871)" text-rendering="geometricPrecision" font-family="'Source Sans Pro'" shape-rendering="geometricPrecision" stroke-miterlimit="1.45">
      <text x="688.3199" xml:space="preserve" y="1154.8618" clip-path="url(#clipPath2)" stroke="none">flumelog-*</text>
    </g>
    <g fill="rgb(126,224,126)" text-rendering="geometricPrecision" shape-rendering="geometricPrecision" transform="matrix(1,0,0,1,-220,-871)" stroke="rgb(126,224,126)">
      <rect x="769.6608" width="87.3392" height="30" y="1136" clip-path="url(#clipPath2)" stroke="none"/>
    </g>
    <g font-size="14px" stroke-linecap="butt" transform="matrix(1,0,0,1,-220,-871)" text-rendering="geometricPrecision" font-family="'Source Sans Pro'" shape-rendering="geometricPrecision" stroke-miterlimit="1.45">
      <text x="777.8459" xml:space="preserve" y="1154.8618" clip-path="url(#clipPath2)" stroke="none">flumeview-*</text>
    </g>
    <g fill="rgb(255,153,204)" text-rendering="geometricPrecision" shape-rendering="geometricPrecision" transform="matrix(1,0,0,1,-220,-871)" stroke="rgb(255,153,204)">
      <rect x="235" width="622" height="54" y="886.5" clip-path="url(#clipPath2)" stroke="none"/>
    </g>
    <g font-size="14px" stroke-linecap="butt" transform="matrix(1,0,0,1,-220,-871)" text-rendering="geometricPrecision" font-family="'Source Sans Pro'" shape-rendering="geometricPrecision" stroke-miterlimit="1.45">
      <text x="531.7768" xml:space="preserve" y="917.3619" clip-path="url(#clipPath2)" stroke="none">apps</text>
    </g>
    <g fill="rgb(136,226,216)" text-rendering="geometricPrecision" shape-rendering="geometricPrecision" transform="matrix(1,0,0,1,-220,-871)" stroke="rgb(136,226,216)">
      <rect x="590.0114" width="79.7593" height="65.5" y="1100.5" clip-path="url(#clipPath2)" stroke="none"/>
    </g>
    <g font-size="14px" stroke-linecap="butt" transform="matrix(1,0,0,1,-220,-871)" text-rendering="geometricPrecision" font-family="'Source Sans Pro'" shape-rendering="geometricPrecision" stroke-miterlimit="1.45">
      <text x="604.8517" xml:space="preserve" y="1137.1118" clip-path="url(#clipPath2)" stroke="none">ssb-keys</text>
    </g>
    <g fill="rgb(255,153,153)" text-rendering="geometricPrecision" shape-rendering="geometricPrecision" transform="matrix(1,0,0,1,-220,-871)" stroke="rgb(255,153,153)">
      <rect x="235" width="622" height="54" y="981.5" clip-path="url(#clipPath2)" stroke="none"/>
    </g>
    <g font-size="14px" stroke-linecap="butt" transform="matrix(1,0,0,1,-220,-871)" text-rendering="geometricPrecision" font-family="'Source Sans Pro'" shape-rendering="geometricPrecision" stroke-miterlimit="1.45">
      <text x="516.0635" xml:space="preserve" y="1012.3619" clip-path="url(#clipPath2)" stroke="none">scuttlebot</text>
    </g>
    <g fill="rgb(255,153,153)" text-rendering="geometricPrecision" shape-rendering="geometricPrecision" transform="matrix(1,0,0,1,-220,-871)" stroke="rgb(255,153,153)">
      <rect x="235" width="622" height="30" y="946" clip-path="url(#clipPath2)" stroke="none"/>
    </g>
    <g font-size="14px" stroke-linecap="butt" transform="matrix(1,0,0,1,-220,-871)" text-rendering="geometricPrecision" font-family="'Source Sans Pro'" shape-rendering="geometricPrecision" stroke-miterlimit="1.45">
      <text x="524.5218" xml:space="preserve" y="964.8619" clip-path="url(#clipPath2)" stroke="none">plugins</text>
    </g>
  </g>
</svg>
