<?xml version="1.0" encoding="UTF-8"?><svg xmlns="http://www.w3.org/2000/svg" xmlns:xlink="http://www.w3.org/1999/xlink" fill-opacity="1" color-rendering="auto" color-interpolation="auto" text-rendering="auto" stroke="black" stroke-linecap="square" width="653" stroke-miterlimit="10" shape-rendering="auto" stroke-opacity="1" fill="black" stroke-dasharray="none" font-weight="normal" stroke-width="1" height="298" font-family="'Dialog'" font-style="normal" stroke-linejoin="miter" font-size="12px" stroke-dashoffset="0" image-rendering="auto">
  <!--Generated by ySVG 2.5-->
  <defs id="genericDefs"/>
  <g>
    <defs id="defs1">
      <clipPath clipPathUnits="userSpaceOnUse" id="clipPath1">
        <path d="M0 0 L653 0 L653 298 L0 298 L0 0 Z"/>
      </clipPath>
      <clipPath clipPathUnits="userSpaceOnUse" id="clipPath2">
        <path d="M220 883 L873 883 L873 1181 L220 1181 L220 883 Z"/>
      </clipPath>
    </defs>
    <g fill="white" text-rendering="geometricPrecision" shape-rendering="geometricPrecision" transform="translate(-220,-883)" stroke="white">
      <rect x="220" width="653" height="298" y="883" clip-path="url(#clipPath2)" stroke="none"/>
    </g>
    <g fill="rgb(153,204,255)" text-rendering="geometricPrecision" shape-rendering="geometricPrecision" transform="matrix(1,0,0,1,-220,-883)" stroke="rgb(153,204,255)">
      <rect x="235" width="389" height="54" y="1041" clip-path="url(#clipPath2)" stroke="none"/>
    </g>
    <g font-size="14px" stroke-linecap="butt" transform="matrix(1,0,0,1,-220,-883)" text-rendering="geometricPrecision" font-family="'Source Sans Pro'" shape-rendering="geometricPrecision" stroke-miterlimit="1.45">
      <text x="393.9945" xml:space="preserve" y="1071.8618" clip-path="url(#clipPath2)" stroke="none">secret-stack</text>
    </g>
    <g fill="rgb(153,204,255)" text-rendering="geometricPrecision" shape-rendering="geometricPrecision" transform="matrix(1,0,0,1,-220,-883)" stroke="rgb(153,204,255)">
      <rect x="235" width="225.2646" height="30" y="1100.5" clip-path="url(#clipPath2)" stroke="none"/>
    </g>
    <g font-size="14px" stroke-linecap="butt" transform="matrix(1,0,0,1,-220,-883)" text-rendering="geometricPrecision" font-family="'Source Sans Pro'" shape-rendering="geometricPrecision" stroke-miterlimit="1.45">
      <text x="314.1627" xml:space="preserve" y="1119.3618" clip-path="url(#clipPath2)" stroke="none">multiserver</text>
    </g>
    <g fill="rgb(153,204,255)" text-rendering="geometricPrecision" shape-rendering="geometricPrecision" transform="matrix(1,0,0,1,-220,-883)" stroke="rgb(153,204,255)">
      <rect x="466.0071" width="157.9929" height="30" y="1100.5" clip-path="url(#clipPath2)" stroke="none"/>
    </g>
    <g font-size="14px" stroke-linecap="butt" transform="matrix(1,0,0,1,-220,-883)" text-rendering="geometricPrecision" font-family="'Source Sans Pro'" shape-rendering="geometricPrecision" stroke-miterlimit="1.45">
      <text x="522.7768" xml:space="preserve" y="1119.3618" clip-path="url(#clipPath2)" stroke="none">muxrpc</text>
    </g>
    <g fill="rgb(153,204,255)" text-rendering="geometricPrecision" shape-rendering="geometricPrecision" transform="matrix(1,0,0,1,-220,-883)" stroke="rgb(153,204,255)">
      <rect x="235" width="36" height="30" y="1136" clip-path="url(#clipPath2)" stroke="none"/>
    </g>
    <g font-size="14px" stroke-linecap="butt" transform="matrix(1,0,0,1,-220,-883)" text-rendering="geometricPrecision" font-family="'Source Sans Pro'" shape-rendering="geometricPrecision" stroke-miterlimit="1.45">
      <text x="243.3383" xml:space="preserve" y="1154.8618" clip-path="url(#clipPath2)" stroke="none">net</text>
    </g>
    <g fill="rgb(153,204,255)" text-rendering="geometricPrecision" shape-rendering="geometricPrecision" transform="matrix(1,0,0,1,-220,-883)" stroke="rgb(153,204,255)">
      <rect x="275.6893" width="141.9322" height="30" y="1136" clip-path="url(#clipPath2)" stroke="none"/>
    </g>
    <g font-size="14px" stroke-linecap="butt" transform="matrix(1,0,0,1,-220,-883)" text-rendering="geometricPrecision" font-family="'Source Sans Pro'" shape-rendering="geometricPrecision" stroke-miterlimit="1.45">
      <text x="294.3871" xml:space="preserve" y="1154.8618" clip-path="url(#clipPath2)" stroke="none">secret-handshake</text>
    </g>
    <g fill="rgb(153,204,255)" text-rendering="geometricPrecision" shape-rendering="geometricPrecision" transform="matrix(1,0,0,1,-220,-883)" stroke="rgb(153,204,255)">
      <rect x="424.2646" width="36" height="30" y="1136" clip-path="url(#clipPath2)" stroke="none"/>
    </g>
    <g font-size="14px" stroke-linecap="butt" transform="matrix(1,0,0,1,-220,-883)" text-rendering="geometricPrecision" font-family="'Source Sans Pro'" shape-rendering="geometricPrecision" stroke-miterlimit="1.45">
      <text x="434.3099" xml:space="preserve" y="1154.8618" clip-path="url(#clipPath2)" stroke="none">ws</text>
    </g>
    <g fill="rgb(153,204,255)" text-rendering="geometricPrecision" shape-rendering="geometricPrecision" transform="matrix(1,0,0,1,-220,-883)" stroke="rgb(153,204,255)">
      <rect x="466.0071" width="157.9929" height="30" y="1136" clip-path="url(#clipPath2)" stroke="none"/>
    </g>
    <g font-size="14px" stroke-linecap="butt" transform="matrix(1,0,0,1,-220,-883)" text-rendering="geometricPrecision" font-family="'Source Sans Pro'" shape-rendering="geometricPrecision" stroke-miterlimit="1.45">
      <text x="482.7098" xml:space="preserve" y="1154.8618" clip-path="url(#clipPath2)" stroke="none">packet-stream-codec</text>
    </g>
    <g fill="rgb(126,224,126)" text-rendering="geometricPrecision" shape-rendering="geometricPrecision" transform="matrix(1,0,0,1,-220,-883)" stroke="rgb(126,224,126)">
      <rect x="629.88" width="227.12" height="54" y="1041" clip-path="url(#clipPath2)" stroke="none"/>
    </g>
    <g font-size="14px" stroke-linecap="butt" transform="matrix(1,0,0,1,-220,-883)" text-rendering="geometricPrecision" font-family="'Source Sans Pro'" shape-rendering="geometricPrecision" stroke-miterlimit="1.45">
      <text x="689.6536" xml:space="preserve" y="1071.8618" clip-path="url(#clipPath2)" stroke="none">secure-scuttlebutt</text>
    </g>
    <g fill="rgb(153,153,255)" text-rendering="geometricPrecision" shape-rendering="geometricPrecision" transform="matrix(1,0,0,1,-220,-883)" stroke="rgb(153,153,255)">
      <rect x="235" width="622" height="76.9289" y="958.5711" clip-path="url(#clipPath2)" stroke="none"/>
      <rect x="235" width="622" height="16.9289" y="958.5711" clip-path="url(#clipPath2)" stroke="none"/>
    </g>
    <g font-size="14px" stroke-linecap="butt" transform="matrix(1,0,0,1,-220,-883)" text-rendering="geometricPrecision" font-family="'Source Sans Pro'" shape-rendering="geometricPrecision" font-weight="bold" stroke-miterlimit="1.45">
      <text x="514.1046" xml:space="preserve" y="971.0793" clip-path="url(#clipPath2)" stroke="none">scuttlebot</text>
    </g>
    <g fill="rgb(231,224,251)" text-rendering="geometricPrecision" shape-rendering="geometricPrecision" transform="matrix(1,0,0,1,-220,-883)" stroke="rgb(231,224,251)">
      <rect x="259" width="138" height="30" y="990.5" clip-path="url(#clipPath2)" stroke="none"/>
    </g>
    <g font-size="14px" stroke-linecap="butt" transform="matrix(1,0,0,1,-220,-883)" text-rendering="geometricPrecision" font-family="'Source Sans Pro'" shape-rendering="geometricPrecision" stroke-miterlimit="1.45">
      <text x="304.248" xml:space="preserve" y="1009.3619" clip-path="url(#clipPath2)" stroke="none">plugin A</text>
    </g>
    <g fill="rgb(231,224,251)" text-rendering="geometricPrecision" shape-rendering="geometricPrecision" transform="matrix(1,0,0,1,-220,-883)" stroke="rgb(231,224,251)">
      <rect x="477.5" width="138" height="30" y="990.5" clip-path="url(#clipPath2)" stroke="none"/>
    </g>
    <g font-size="14px" stroke-linecap="butt" transform="matrix(1,0,0,1,-220,-883)" text-rendering="geometricPrecision" font-family="'Source Sans Pro'" shape-rendering="geometricPrecision" stroke-miterlimit="1.45">
      <text x="522.4402" xml:space="preserve" y="1009.3619" clip-path="url(#clipPath2)" stroke="none">plugin B</text>
    </g>
    <g fill="rgb(231,224,251)" text-rendering="geometricPrecision" shape-rendering="geometricPrecision" transform="matrix(1,0,0,1,-220,-883)" stroke="rgb(231,224,251)">
      <rect x="696" width="138" height="30" y="990.5" clip-path="url(#clipPath2)" stroke="none"/>
    </g>
    <g font-size="14px" stroke-linecap="butt" transform="matrix(1,0,0,1,-220,-883)" text-rendering="geometricPrecision" font-family="'Source Sans Pro'" shape-rendering="geometricPrecision" stroke-miterlimit="1.45">
      <text x="741.0591" xml:space="preserve" y="1009.3619" clip-path="url(#clipPath2)" stroke="none">plugin C</text>
    </g>
    <g fill="rgb(126,224,126)" text-rendering="geometricPrecision" shape-rendering="geometricPrecision" transform="matrix(1,0,0,1,-220,-883)" stroke="rgb(126,224,126)">
      <rect x="629.88" width="227.12" height="30" y="1100.5" clip-path="url(#clipPath2)" stroke="none"/>
    </g>
    <g font-size="14px" stroke-linecap="butt" transform="matrix(1,0,0,1,-220,-883)" text-rendering="geometricPrecision" font-family="'Source Sans Pro'" shape-rendering="geometricPrecision" stroke-miterlimit="1.45">
      <text x="718.7855" xml:space="preserve" y="1119.3618" clip-path="url(#clipPath2)" stroke="none">flumedb</text>
    </g>
    <g fill="rgb(126,224,126)" text-rendering="geometricPrecision" shape-rendering="geometricPrecision" transform="matrix(1,0,0,1,-220,-883)" stroke="rgb(126,224,126)">
      <rect x="629.88" width="111.096" height="30" y="1136" clip-path="url(#clipPath2)" stroke="none"/>
    </g>
    <g font-size="14px" stroke-linecap="butt" transform="matrix(1,0,0,1,-220,-883)" text-rendering="geometricPrecision" font-family="'Source Sans Pro'" shape-rendering="geometricPrecision" stroke-miterlimit="1.45">
      <text x="654.3231" xml:space="preserve" y="1154.8618" clip-path="url(#clipPath2)" stroke="none">flumelog-*</text>
    </g>
    <g fill="rgb(126,224,126)" text-rendering="geometricPrecision" shape-rendering="geometricPrecision" transform="matrix(1,0,0,1,-220,-883)" stroke="rgb(126,224,126)">
      <rect x="745.904" width="111.096" height="30" y="1136" clip-path="url(#clipPath2)" stroke="none"/>
    </g>
    <g font-size="14px" stroke-linecap="butt" transform="matrix(1,0,0,1,-220,-883)" text-rendering="geometricPrecision" font-family="'Source Sans Pro'" shape-rendering="geometricPrecision" stroke-miterlimit="1.45">
      <text x="765.9675" xml:space="preserve" y="1154.8618" clip-path="url(#clipPath2)" stroke="none">flumeview-*</text>
    </g>
    <g fill="rgb(255,204,255)" text-rendering="geometricPrecision" shape-rendering="geometricPrecision" transform="matrix(1,0,0,1,-220,-883)" stroke="rgb(255,204,255)">
      <rect x="235" width="622" height="54" y="898.7353" clip-path="url(#clipPath2)" stroke="none"/>
    </g>
    <g font-size="14px" stroke-linecap="butt" transform="matrix(1,0,0,1,-220,-883)" text-rendering="geometricPrecision" font-family="'Source Sans Pro'" shape-rendering="geometricPrecision" stroke-miterlimit="1.45">
      <text x="502.0991" xml:space="preserve" y="929.5972" clip-path="url(#clipPath2)" stroke="none">UI applications</text>
    </g>
  </g>
</svg>
